<svg width="56" height="56" viewBox="0 0 56 56" fill="none" xmlns="http://www.w3.org/2000/svg">
<path d="M3.73346 16.8C3.73346 17.831 2.89772 18.6667 1.86679 18.6667C0.835858 18.6667 0.00012207 17.831 0.00012207 16.8V14.9333C0.00012207 6.68588 6.68601 0 14.9335 0H16.8001C17.8311 0 18.6668 0.835735 18.6668 1.86667C18.6668 2.8976 17.8311 3.73334 16.8001 3.73334H14.9335C8.74789 3.73334 3.73346 8.74777 3.73346 14.9333V16.8Z" fill="#C9A77F"/>
<path d="M14.9333 52.2693C8.74777 52.2693 3.73334 47.2549 3.73334 41.0693V39.2026C3.73334 38.1716 2.8976 37.3359 1.86667 37.3359C0.835735 37.3359 0 38.1716 0 39.2026V41.0693C0 49.3168 6.68588 56.0026 14.9333 56.0026H16.8C17.831 56.0026 18.6667 55.1669 18.6667 54.136C18.6667 53.105 17.831 52.2693 16.8 52.2693H14.9333Z" fill="#C9A77F"/>
<path d="M37.3359 54.136C37.3359 55.1669 38.1716 56.0026 39.2026 56.0026H41.0693C49.3168 56.0026 56.0026 49.3168 56.0026 41.0693V39.2026C56.0026 38.1716 55.1669 37.3359 54.136 37.3359C53.105 37.3359 52.2693 38.1716 52.2693 39.2026V41.0693C52.2693 47.2549 47.2549 52.2693 41.0693 52.2693H39.2026C38.1716 52.2693 37.3359 53.105 37.3359 54.136Z" fill="#C9A77F"/>
<path d="M54.136 18.6667C55.1669 18.6667 56.0026 17.831 56.0026 16.8V14.9333C56.0026 6.68588 49.3168 0 41.0693 0H39.2026C38.1716 0 37.3359 0.835735 37.3359 1.86667C37.3359 2.8976 38.1716 3.73334 39.2026 3.73334H41.0693C47.2549 3.73334 52.2693 8.74777 52.2693 14.9333V16.8C52.2693 17.831 53.105 18.6667 54.136 18.6667Z" fill="#C9A77F"/>
<path fill-rule="evenodd" clip-rule="evenodd" d="M13.5359 16.7979C13.5359 11.1278 18.1325 6.53125 23.8026 6.53125H32.2026C37.8728 6.53125 42.4693 11.1278 42.4693 16.7979V27.1519L43.3854 26.0831C44.0563 25.3004 45.2348 25.2097 46.0175 25.8807C46.8002 26.5515 46.8909 27.73 46.22 28.5128L44.0422 31.0535C43.0272 32.2376 42.4693 33.7457 42.4693 35.3053V39.1979C42.4693 44.868 37.8728 49.4646 32.2026 49.4646H23.8026C18.1325 49.4646 13.5359 44.868 13.5359 39.1979V35.3053C13.5359 33.7457 12.9781 32.2376 11.9631 31.0535L9.78533 28.5128C9.11445 27.73 9.20508 26.5515 9.98786 25.8807C10.7706 25.2097 11.949 25.3004 12.6199 26.0831L13.5359 27.1519V16.7979ZM21.0026 16.3313C19.9716 16.3313 19.1359 17.167 19.1359 18.1979C19.1359 19.2289 19.9716 20.0646 21.0026 20.0646H35.0026C36.0336 20.0646 36.8693 19.2289 36.8693 18.1979C36.8693 17.167 36.0336 16.3313 35.0026 16.3313H21.0026ZM21.6824 32.3406C20.988 31.5787 19.8073 31.5238 19.0453 32.2182C18.2833 32.9126 18.2285 34.0933 18.9229 34.8552C23.9159 40.3344 32.0893 40.3344 37.0824 34.8552C37.7768 34.0933 37.7219 32.9126 36.9599 32.2182C36.1979 31.5238 35.0173 31.5787 34.3229 32.3406C30.8107 36.1949 25.1945 36.1949 21.6824 32.3406Z" fill="#C9A77F"/>
</svg>
