<svg width="146" height="42" viewBox="0 0 146 42" fill="none" xmlns="http://www.w3.org/2000/svg">
<g clip-path="url(#clip0_4093_207951)">
<path d="M40.3467 7.16246C40.0161 6.93982 39.6986 6.96582 39.3664 6.90732C34.4275 6.03736 29.4849 5.17283 24.5384 4.31371C24.4282 4.29529 24.4282 4.27687 24.5384 4.25845C25.6327 4.08295 27.2026 3.85328 29.2482 3.56943C38.8182 2.24229 47.972 1.13182 56.7096 0.23804C62.7204 -0.376236 68.8571 0.223411 74.6829 1.74773C81.4417 3.51418 87.9822 6.09153 94.1112 9.4359C95.0364 9.9408 95.932 10.4727 96.7997 11.0317C96.8111 11.0389 96.8194 11.0489 96.8254 11.0607C96.8307 11.0725 96.833 11.0856 96.8323 11.0985C96.8307 11.1113 96.8254 11.1235 96.8179 11.1335C96.8096 11.1436 96.799 11.1511 96.7869 11.1553C95.7066 11.5453 95.134 11.3177 94.0878 10.7571C87.4996 7.22746 80.2306 4.19509 72.8174 3.20705C66.1193 2.31488 59.2576 2.14261 52.6594 3.64743C48.6091 4.57047 44.482 5.69014 40.6347 7.25996C40.6222 7.26514 40.6118 7.27432 40.6051 7.28605C40.5986 7.29778 40.5961 7.31137 40.5982 7.32466C40.6002 7.33794 40.6067 7.35014 40.6166 7.35933C40.6265 7.36852 40.6392 7.37416 40.6527 7.37534C49.7536 8.0481 58.8169 8.90505 67.8425 9.9462C74.5946 10.7262 78.8818 11.2056 80.7034 11.3844C84.1371 11.7208 87.9157 11.8914 91.5142 11.7013C93.9327 11.5745 96.3473 11.4039 98.7582 11.1894C101.57 10.9408 106.088 10.5994 109.555 10.9993C112.089 11.2918 114.573 11.8188 117.007 12.5804C122.406 14.2672 127.659 16.6853 132.601 19.4122C133.273 19.7844 133.581 20.1857 133.229 20.9285C133.211 20.9657 133.185 20.999 133.154 21.026C133.123 21.0531 133.086 21.0733 133.046 21.0856C133.006 21.0978 132.965 21.1017 132.924 21.0971C132.882 21.0923 132.843 21.0792 132.807 21.0584C129.473 19.1343 126 17.3857 122.391 15.8127C117.164 13.5376 111.226 11.75 105.517 11.9467C101.318 12.0913 96.8436 12.5057 92.4976 12.7885C86.7878 13.159 81.2057 12.7641 75.5323 12.1677C59.4982 10.4841 43.415 8.9175 27.2844 8.58442C20.5585 8.44462 13.6706 8.44462 7.02661 9.60652C6.33494 9.72787 5.81891 9.7485 5.47852 9.66832C4.62429 9.46785 4.08971 8.88068 3.87478 7.90673C3.8617 7.84823 3.8846 7.81245 3.94352 7.79947C5.97818 7.34988 8.02702 7.04329 10.0901 6.8797C20.0561 6.08829 29.7489 6.41493 40.0455 7.10558C40.1 7.10883 40.1508 7.12453 40.1977 7.1527C40.2424 7.17979 40.2883 7.20362 40.3352 7.22421C40.5337 7.31305 40.5376 7.29246 40.3467 7.16246Z" fill="white"/>
<path d="M81.4001 10.1258C80.6867 9.95679 80.7639 8.91346 81.2299 8.59006C81.8517 8.16106 82.562 7.68654 83.3215 7.96441C84.4245 8.36746 85.5244 8.77966 86.6205 9.20109C86.8603 9.29431 87.0532 9.38581 87.1985 9.47574C87.2461 9.50499 87.2794 9.54564 87.2968 9.59761C87.5631 10.3517 87.29 11.2634 86.3913 11.3105C85.8088 11.3408 85.1825 11.3359 84.5115 11.2958C84.3768 11.2871 84.3277 11.2184 84.364 11.0894L84.4442 10.8002C84.4638 10.7309 84.4373 10.6907 84.364 10.6799C83.3639 10.5423 82.3759 10.3576 81.4001 10.1258Z" fill="white"/>
<path d="M45.5176 21.9923C45.4031 21.9284 45.3103 21.8417 45.2395 21.7323C42.8273 18.0726 40.4135 14.4119 37.9981 10.7501C37.992 10.7408 37.9882 10.7302 37.9868 10.7192C37.9855 10.7082 37.9866 10.697 37.9902 10.6866C37.9939 10.6761 37.9998 10.6665 38.0077 10.6587C38.0156 10.6508 38.0252 10.6448 38.0358 10.6412L40.7866 9.69866C40.8151 9.68944 40.8458 9.69041 40.8735 9.70144C40.9013 9.71239 40.9243 9.73279 40.9385 9.75889C40.9527 9.78499 40.9573 9.81521 40.9513 9.84424C40.9454 9.87334 40.9294 9.89944 40.9061 9.91804L39.4104 11.0507C39.3821 11.0724 39.3631 11.1037 39.357 11.1387C39.351 11.1735 39.3583 11.2095 39.3776 11.2392C41.4701 14.5294 43.5621 17.8164 45.6535 21.1002C45.8073 21.3417 46.0009 21.5438 46.2344 21.7062C47.1628 22.353 48.0983 22.9869 49.0409 23.6076C49.1522 23.6813 49.1659 23.7593 49.0818 23.8416C49.062 23.8614 49.0365 23.8743 49.009 23.8784C48.9815 23.8825 48.9536 23.8776 48.9296 23.8644C47.7852 23.2447 46.6479 22.6206 45.5176 21.9923Z" fill="white"/>
<path d="M5.54716 12.2929L5.20514 12.1677C5.14187 12.1439 5.12332 12.1011 5.14951 12.0394L5.81064 10.4549C5.82493 10.4221 5.8496 10.3948 5.88091 10.3773C5.91221 10.3597 5.94844 10.3527 5.9841 10.3574L8.29972 10.6564C8.31137 10.6578 8.3225 10.6621 8.33203 10.669C8.34148 10.6758 8.34905 10.685 8.35396 10.6956C8.35896 10.7062 8.361 10.7179 8.36009 10.7295C8.35918 10.7411 8.35533 10.7524 8.34882 10.762L2.02386 20.3905C2.01352 20.4053 1.99827 20.416 1.98079 20.4208C1.96331 20.4254 1.94472 20.4238 1.92828 20.4163C1.91185 20.4087 1.89864 20.3956 1.89098 20.3793C1.88332 20.363 1.88169 20.3446 1.88639 20.3272C1.89185 20.312 1.8984 20.2963 1.90604 20.2801C3.1192 17.7287 4.36673 15.1492 5.64863 12.5415C5.70754 12.4213 5.67372 12.3384 5.54716 12.2929Z" fill="white"/>
<path d="M30.3298 17.1228C25.0424 12.3939 17.351 13.0504 12.6854 18.2896C12.6598 18.3183 12.6251 18.3375 12.587 18.3439C12.549 18.3504 12.5098 18.3439 12.476 18.3254C12.2943 18.2246 12.314 18.0605 12.4187 17.9045C15.0354 14.0368 20.1249 12.2508 24.5989 13.2015C27.8342 13.8873 30.7978 15.9284 32.4442 18.8454C32.4692 18.8898 32.4676 18.9331 32.4392 18.9754C32.3165 19.1655 32.1659 19.1037 32.0366 18.9624C31.477 18.3432 30.9091 17.6396 30.3298 17.1228Z" fill="white"/>
<path d="M98.0226 20.7774C97.8312 20.7075 97.8055 20.5287 97.9213 20.3727C102.971 13.5507 113.404 13.744 117.883 21.1576C117.983 21.3234 118.017 21.5834 117.717 21.5541C117.684 21.5505 117.652 21.5402 117.623 21.5237C117.593 21.5072 117.568 21.4848 117.549 21.4582C112.803 15.0587 103.503 14.5956 98.2549 20.7156C98.1921 20.7892 98.1142 20.8098 98.0226 20.7774Z" fill="white"/>
<path d="M128.64 19.7493C128.67 19.7546 128.697 19.7708 128.716 19.7949C128.807 19.92 128.724 20.0159 128.596 20.0159C126.97 20.0213 125.343 20.0218 123.715 20.0175C123.653 20.0164 123.606 19.9915 123.572 19.9428L120.752 15.9223C120.742 15.9073 120.736 15.8898 120.734 15.8716C120.732 15.8534 120.735 15.835 120.742 15.8182C120.75 15.8014 120.761 15.7868 120.776 15.7758C120.791 15.7647 120.808 15.7575 120.826 15.7549C121.106 15.7143 123.256 18.1487 123.598 18.5094C124.158 19.0993 124.556 19.2228 125.331 19.3074C126.436 19.4265 127.539 19.5738 128.64 19.7493Z" fill="white"/>
<path d="M80.0676 25.484C78.9352 25.4499 77.7006 25.2337 76.7422 25.1119C68.0841 24.0036 59.425 22.9007 50.7648 21.8032C50.1626 21.7274 49.6133 21.6348 49.1169 21.5254C49.1003 21.523 49.0855 21.5142 49.0759 21.5009C49.0661 21.4876 49.0622 21.471 49.065 21.4546C49.0679 21.4382 49.0771 21.4235 49.0909 21.4136C49.1046 21.4037 49.1216 21.3994 49.1382 21.4018L86.8653 25.263C86.9864 25.276 87.0113 25.3312 86.9402 25.4287L86.6838 25.7814C86.6566 25.8182 86.6641 25.8453 86.7065 25.8626C86.9107 25.9504 88.5538 26.5126 88.5651 26.5452C88.5871 26.6026 88.5674 26.6259 88.5069 26.6151L88.0318 26.5273C88.0167 26.5245 88.0016 26.5264 87.9872 26.5329C87.9736 26.5393 87.9622 26.5498 87.9547 26.5631C87.9471 26.5763 87.9433 26.5916 87.9456 26.6067C87.9471 26.6218 87.9532 26.6362 87.963 26.6476C90.0955 29.1177 88.5591 34.248 86.0014 35.9462C85.9545 35.9765 85.9387 36.0182 85.9553 36.0713L87.5363 41.0457C87.5583 41.115 87.5326 41.1496 87.4592 41.1496H81.887C81.8219 41.1496 81.7811 41.1182 81.7659 41.0554L80.7008 36.8221C80.688 36.7693 80.6569 36.7225 80.6138 36.6896C80.5699 36.6567 80.5162 36.6398 80.4618 36.6417C80.4065 36.6436 80.3543 36.6643 80.3135 36.7001C80.2726 36.7359 80.2447 36.7848 80.2356 36.8383L79.4965 41.0733C79.4874 41.1242 79.4572 41.1496 79.4042 41.1496H74.289C74.2311 41.1496 74.2071 41.1215 74.217 41.0652L76.9502 25.6027C76.957 25.5616 76.9797 25.5247 77.013 25.4994C77.0463 25.4741 77.0879 25.4623 77.1302 25.4662C78.0842 25.5582 79.0638 25.5755 80.0676 25.5181C80.3324 25.503 80.3324 25.4916 80.0676 25.484ZM79.7386 36.0307L81.1297 36.0291C81.1963 36.0291 81.2372 36.061 81.2523 36.1249L82.3174 40.3713C82.3318 40.4298 82.3696 40.459 82.4301 40.459H86.4841C86.5711 40.459 86.6021 40.4179 86.5756 40.3355L85.1028 35.7025C85.0861 35.6515 85.102 35.6147 85.1504 35.5919C87.0976 34.6559 88.0023 32.488 88.1937 30.4665C88.4608 27.673 87.438 26.225 84.4794 26.2088C82.207 26.1969 79.9285 26.1942 77.6454 26.2006C77.5909 26.2006 77.5584 26.2277 77.5486 26.2819L75.0434 40.3713C75.0325 40.4298 75.0576 40.459 75.1186 40.459H78.8021C78.8633 40.459 78.8996 40.4287 78.9102 40.368L79.647 36.1087C79.6554 36.0567 79.6864 36.0307 79.7386 36.0307Z" fill="white"/>
<path d="M18.0029 36.1463C17.7739 36.0608 17.5437 35.9839 17.3123 35.9156C13.375 34.757 14.1098 30.6 15.3649 27.7659C16.3861 25.4615 18.5053 24.6344 20.8978 24.4768C23.4529 24.3099 25.967 24.5705 28.4403 25.2584C28.5036 25.2758 28.5254 25.3158 28.5058 25.3787L26.8088 30.5691C26.801 30.5924 26.7853 30.6122 26.7644 30.6253C26.7435 30.6383 26.7187 30.6437 26.6942 30.6407L23.7126 30.249C23.6875 30.2458 23.6711 30.2566 23.6635 30.2815C23.6559 30.3032 23.6482 30.3254 23.6406 30.3482C23.6384 30.3557 23.6416 30.3606 23.6504 30.3628C28.1752 31.0762 27.9854 35.4509 26.4193 38.597C25.3998 40.6445 23.7535 41.5904 21.541 41.8406C18.4557 42.1906 15.4097 41.9555 12.403 41.1353C12.3386 41.118 12.3173 41.0779 12.3391 41.0151L14.2063 35.563C14.2238 35.5131 14.2581 35.4964 14.3094 35.5126C15.5051 35.9048 16.732 36.1361 17.9898 36.2065C18.1273 36.2141 18.1317 36.194 18.0029 36.1463ZM19.9111 28.7555C21.7821 28.4728 23.6509 28.4847 25.5176 28.7913C25.5831 28.8021 25.6256 28.7762 25.6452 28.7133L26.3391 26.5552C26.3609 26.4891 26.3375 26.4507 26.2687 26.4398C24.5362 26.1495 22.7918 26.0487 21.0353 26.1376C18.4562 26.2676 17.2223 27.1907 16.4761 29.6217C15.7495 31.9911 15.6153 34.2629 18.8195 34.5993C19.9902 34.7228 21.1706 34.8479 22.3608 34.9747C22.4318 34.9823 22.4612 35.0213 22.4492 35.0917L22.0483 37.5667C22.0384 37.6328 21.9998 37.6712 21.9321 37.682C19.7458 38.0266 17.5698 37.9832 15.4042 37.5521C15.3399 37.5391 15.2973 37.5635 15.2766 37.6252L14.5255 39.819C14.5048 39.8797 14.526 39.916 14.5893 39.9279C16.7211 40.3277 18.8588 40.4246 21.0026 40.2188C22.4656 40.079 23.7977 39.663 24.5733 38.4962C25.3196 37.3733 26.2851 34.5425 25.4096 33.1676C24.4178 31.6124 21.1057 31.6043 19.4676 31.4386C19.4163 31.4331 19.3945 31.4044 19.4021 31.3524L19.8227 28.8401C19.8314 28.7913 19.8609 28.7631 19.9111 28.7555Z" fill="white"/>
<path d="M6.94542 31.1257L9.36904 24.8545C9.38977 24.8014 9.4285 24.7749 9.48523 24.7749H16.0671C16.0757 24.7747 16.0842 24.7767 16.0918 24.7807C16.0995 24.7847 16.1061 24.7906 16.1109 24.7978C16.1158 24.805 16.1188 24.8134 16.1197 24.8221C16.1207 24.8309 16.1194 24.8398 16.1161 24.848L9.20375 41.5228C9.19013 41.556 9.16698 41.5843 9.13726 41.6043C9.10753 41.6243 9.07258 41.635 9.03679 41.635H1.11307C1.03671 41.635 0.996333 41.5976 0.991968 41.5228L0.000272728 24.8562C-0.0030002 24.802 0.023185 24.7749 0.0788249 24.7749H6.8456C6.86383 24.7749 6.88131 24.7821 6.8942 24.7949C6.90709 24.8077 6.91433 24.8251 6.91433 24.8431L6.90288 31.1191C6.90288 31.1961 6.91706 31.1983 6.94542 31.1257ZM5.30733 36.1098C5.28823 36.1098 5.26992 36.1022 5.25642 36.0888C5.24291 36.0754 5.23533 36.0572 5.23533 36.0382L5.18786 26.5283C5.18786 26.5189 5.186 26.5096 5.18238 26.501C5.17876 26.4923 5.17346 26.4844 5.16677 26.4778C5.16009 26.4712 5.15215 26.4659 5.14341 26.4623C5.13468 26.4587 5.12531 26.4568 5.11586 26.4568L1.86257 26.4357C1.85269 26.4357 1.84291 26.4377 1.83384 26.4416C1.82476 26.4455 1.81659 26.4512 1.80983 26.4583C1.80308 26.4655 1.79789 26.474 1.79457 26.4832C1.79125 26.4925 1.78989 26.5023 1.79057 26.5121L2.58425 39.8994C2.58547 39.9172 2.59338 39.934 2.6064 39.9463C2.61942 39.9586 2.63662 39.9657 2.65462 39.9661L7.9862 39.9774C8.0005 39.9775 8.01457 39.9734 8.02652 39.9656C8.03847 39.9578 8.04778 39.9466 8.0533 39.9335L13.5943 26.5348C13.599 26.524 13.6008 26.512 13.5996 26.5003C13.5985 26.4885 13.5943 26.4772 13.5878 26.4673C13.5811 26.4575 13.5721 26.4495 13.5615 26.4439C13.551 26.4385 13.5392 26.4356 13.5273 26.4357L10.6062 26.4503C10.5917 26.4503 10.5775 26.4547 10.5656 26.4628C10.5536 26.4709 10.5444 26.4824 10.5391 26.4958L6.86851 36.0626C6.86324 36.076 6.85402 36.0876 6.84204 36.0957C6.83008 36.1038 6.81591 36.1081 6.80141 36.1081L5.30733 36.1098Z" fill="white"/>
<path d="M34.3639 36.0705L39.9034 36.0656C39.9128 36.0656 39.9222 36.0674 39.9308 36.0713C39.9394 36.0751 39.947 36.0807 39.9532 36.0877C39.9592 36.0947 39.9637 36.1029 39.9661 36.1118C39.9685 36.1205 39.9689 36.1298 39.9672 36.1388L39.0099 41.5487C39.0056 41.5728 38.9928 41.5947 38.9736 41.6105C38.9545 41.6262 38.9302 41.6348 38.9051 41.6348H27.031C26.9688 41.6348 26.9431 41.6045 26.954 41.5438L29.903 24.8495C29.9117 24.7996 29.9411 24.7747 29.9914 24.7747H41.9342C41.9888 24.7747 42.0079 24.8007 41.9915 24.8527L40.2225 30.269C40.2072 30.3167 40.1745 30.3405 40.1243 30.3405H35.3638C35.3369 30.3405 35.3111 30.3513 35.2921 30.3705C35.2731 30.3897 35.2624 30.4158 35.2624 30.443V30.5876C35.2624 30.6428 35.2908 30.6704 35.3475 30.6704L39.8069 30.6623C39.8647 30.6623 39.8886 30.691 39.8789 30.7484L38.9624 35.7959C38.957 35.8265 38.9407 35.8542 38.9165 35.8742C38.8922 35.8941 38.8616 35.9049 38.8299 35.9048C38.3717 35.9064 34.4016 35.8511 34.3148 35.9747C34.2701 36.0386 34.2865 36.0705 34.3639 36.0705ZM32.2791 37.6501L32.8682 34.2862C32.8781 34.2288 32.9119 34.2001 32.9697 34.2001H37.47C37.5267 34.2001 37.5594 34.1725 37.5681 34.1172L37.8415 32.4889C37.8534 32.4141 37.8213 32.3768 37.7449 32.3768L33.3035 32.3702C33.2555 32.3702 33.2353 32.3464 33.243 32.2988L33.8403 28.7041C33.8441 28.6845 33.8545 28.6668 33.8697 28.6541C33.8849 28.6413 33.904 28.6343 33.9237 28.6343H38.9019C38.9597 28.6343 38.9974 28.6066 39.0148 28.5513L39.6481 26.5688C39.6699 26.4983 39.6438 26.4637 39.5696 26.4647C36.9796 26.5005 34.3891 26.4918 31.798 26.4388C31.5771 26.4339 31.3479 26.3559 31.2973 26.6451C30.5194 31.0589 29.7344 35.4747 28.9423 39.8927C28.9336 39.9437 28.9549 39.9691 29.0062 39.9691H37.4798C37.5464 39.9691 37.5856 39.936 37.5976 39.8699L37.938 37.9036C37.95 37.8397 37.9238 37.799 37.8595 37.7817C37.6882 37.7351 37.518 37.7146 37.3488 37.72C35.6829 37.7698 34.017 37.7753 32.3511 37.7363C32.2933 37.7351 32.2693 37.7064 32.2791 37.6501Z" fill="white"/>
<path d="M46.5258 39.1614L46.0349 41.5405C46.0229 41.6033 45.9842 41.6348 45.9187 41.6348H39.5087C39.4509 41.6348 39.4285 41.6072 39.4416 41.5519L43.3642 24.8624C43.3784 24.8039 43.4154 24.7747 43.4755 24.7747H50.8477C50.9034 24.7747 50.9329 24.8023 50.9361 24.8576L51.2094 29.8352C51.2089 29.8447 51.2119 29.8541 51.218 29.8616C51.2239 29.869 51.2326 29.874 51.242 29.8757C51.2516 29.8772 51.2613 29.8754 51.2694 29.8703C51.2776 29.8652 51.2836 29.8573 51.2864 29.8481L53.3188 24.851C53.3395 24.8001 53.3777 24.7747 53.4334 24.7747H60.8711C60.9289 24.7747 60.9546 24.8029 60.948 24.8592L58.9499 41.5178C58.9411 41.5958 58.897 41.6348 58.8173 41.6348H52.4401C52.3789 41.6348 52.3528 41.605 52.3615 41.5454L52.6364 39.4507C52.656 39.3001 52.637 39.2952 52.5791 39.4361L51.7232 41.5178C51.7092 41.5523 51.6852 41.582 51.6543 41.6028C51.6234 41.6237 51.587 41.6348 51.5498 41.6348H46.8384C46.8186 41.6348 46.7995 41.6272 46.7852 41.6135C46.7708 41.6 46.7623 41.5814 46.7615 41.5616C46.7277 40.76 46.666 39.9604 46.5766 39.1631C46.5646 39.059 46.5476 39.0585 46.5258 39.1614ZM55.2466 32.6156C55.254 32.6156 55.2614 32.6171 55.2682 32.6201C55.275 32.6231 55.2812 32.6276 55.2861 32.6331C55.2911 32.6387 55.2948 32.6452 55.297 32.6522C55.2992 32.6594 55.2998 32.6668 55.2989 32.6741L54.2925 39.9122C54.2915 39.9196 54.2922 39.927 54.2944 39.9341C54.2967 39.9412 54.3004 39.9477 54.3053 39.9533C54.3103 39.9588 54.3163 39.9632 54.3232 39.9662C54.33 39.9692 54.3374 39.9707 54.3449 39.9707L57.3805 39.9674C57.3931 39.9671 57.405 39.9624 57.4143 39.9541C57.4237 39.9457 57.4297 39.9343 57.4312 39.922L59.0399 26.4989C59.0408 26.4915 59.0402 26.4841 59.038 26.477C59.0357 26.4699 59.032 26.4634 59.0271 26.4578C59.0221 26.4523 59.016 26.4479 59.0092 26.4449C59.0023 26.4419 58.995 26.4404 58.9875 26.4404H54.5249C54.5146 26.4406 54.5047 26.4438 54.4962 26.4496C54.4878 26.4554 54.4813 26.4635 54.4774 26.4729L51.3158 34.1302C51.3119 34.1396 51.3054 34.1477 51.2969 34.1535C51.2886 34.1593 51.2786 34.1625 51.2683 34.1627L49.8298 34.1725C49.8165 34.1725 49.8037 34.1675 49.794 34.1584C49.7842 34.1493 49.7783 34.1369 49.7775 34.1237L49.3324 26.5022C49.3315 26.4889 49.3256 26.4765 49.316 26.4674C49.3062 26.4584 49.2933 26.4533 49.28 26.4534L44.7601 26.4583C44.7483 26.4584 44.7368 26.4624 44.7276 26.4698C44.7184 26.4772 44.712 26.4874 44.7094 26.4989L41.5625 39.896C41.5607 39.9035 41.5608 39.9114 41.5625 39.919C41.5643 39.9266 41.5677 39.9336 41.5726 39.9397C41.5774 39.9458 41.5836 39.9507 41.5906 39.9541C41.5976 39.9575 41.6053 39.9593 41.6132 39.9593L44.6014 39.9918C44.6134 39.9917 44.625 39.9874 44.6343 39.9797C44.6436 39.972 44.6499 39.9614 44.6521 39.9496L46.2264 32.6563C46.229 32.6448 46.2354 32.6345 46.2446 32.6272C46.2538 32.6198 46.2652 32.6157 46.2771 32.6156H47.7794C47.7927 32.6156 47.8056 32.6207 47.8153 32.6297C47.825 32.6387 47.8309 32.6512 47.8318 32.6644L48.3407 39.922C48.3419 39.9349 48.348 39.9469 48.3577 39.9556C48.3673 39.9644 48.38 39.9692 48.3931 39.9691L50.5041 39.9902C50.5146 39.9903 50.525 39.9873 50.5337 39.9815C50.5424 39.9757 50.5492 39.9674 50.5532 39.9577L53.5773 32.6481C53.5812 32.6387 53.5878 32.6306 53.5962 32.6249C53.6047 32.6191 53.6146 32.6159 53.6248 32.6156H55.2466Z" fill="white"/>
<path d="M91.8438 41.0295C87.9229 39.8042 89.0902 33.9019 89.8724 31.1653C90.8671 27.6909 92.7145 25.4938 96.6587 25.2192C101.106 24.9088 104.15 26.0756 103.825 31.2076C103.62 34.4561 102.599 38.873 99.432 40.5956C97.3456 41.7315 94.1253 41.7397 91.8438 41.0295ZM89.7854 36.2339C89.6999 38.7446 90.7718 40.3193 93.3575 40.6573C97.1119 41.1481 100.377 40.4526 101.908 36.6483C102.766 34.5205 103.166 32.324 103.108 30.0586C103.008 26.0464 99.9169 25.6596 96.6323 25.9131C93.2516 26.1748 91.4428 28.0663 90.5789 31.1962C90.1046 32.9155 89.8399 34.5948 89.7854 36.2339Z" fill="white"/>
<path d="M111.19 29.8837L113.838 25.5805C113.867 25.5317 113.911 25.5073 113.968 25.5073L119.536 25.5025C119.608 25.5025 119.625 25.5322 119.587 25.5919L114.717 33.1906C114.705 33.2085 114.698 33.2284 114.695 33.2492C114.692 33.2699 114.693 33.2909 114.698 33.3109L116.608 39.9607C116.633 40.0485 116.664 40.0501 116.7 39.9656L122.807 25.587C122.83 25.5328 122.871 25.5057 122.93 25.5057L130.392 25.5041C130.451 25.5041 130.482 25.5334 130.485 25.5919L131.58 41.0544C131.584 41.1161 131.556 41.147 131.494 41.147H126.121C126.059 41.147 126.027 41.1161 126.024 41.0544L125.949 38.8654C125.947 38.7885 125.907 38.75 125.83 38.75H122.827C122.8 38.75 122.775 38.7581 122.753 38.7732C122.731 38.7883 122.714 38.8096 122.704 38.8345L121.819 41.0707C121.797 41.1259 121.756 41.1535 121.697 41.1535L111.362 41.1519C111.304 41.1519 111.268 41.1243 111.254 41.069L110.069 36.3124C110.038 36.1921 110.012 36.1927 109.99 36.3141L109.147 41.0707C109.139 41.1216 109.109 41.147 109.057 41.147H103.942C103.882 41.147 103.857 41.1178 103.869 41.0593L106.606 25.5886C106.61 25.5654 106.623 25.5443 106.641 25.5292C106.659 25.514 106.682 25.5058 106.706 25.5057H111.813C111.876 25.5057 111.901 25.5366 111.89 25.5984L111.132 29.8625C111.113 29.9698 111.132 29.9768 111.19 29.8837ZM110.534 34.0129C110.492 34.637 110.493 35.0378 110.535 35.2155C110.953 36.9349 111.376 38.6503 111.803 40.3621C111.81 40.389 111.826 40.413 111.848 40.43C111.87 40.4471 111.897 40.4564 111.924 40.4563H115.893C115.979 40.4563 116.01 40.4152 115.987 40.3328L113.944 33.2183C113.928 33.1609 113.935 33.1072 113.967 33.0574L118.249 26.3816C118.329 26.2582 118.295 26.1964 118.148 26.1964H114.345C114.297 26.1964 114.26 26.217 114.235 26.2582C113.261 27.8366 112.291 29.4178 111.322 31.0017C111.156 31.2758 111.02 31.6712 110.915 32.188C110.901 32.2563 110.859 32.2904 110.789 32.2904H110.085C110.031 32.2904 110.008 32.2639 110.018 32.2108L111.064 26.2825C111.074 26.2251 111.049 26.1964 110.99 26.1964H107.274C107.258 26.1964 107.241 26.2022 107.229 26.2126C107.216 26.223 107.208 26.2374 107.205 26.2532L104.714 40.2938C104.696 40.4022 104.742 40.4563 104.852 40.4563H108.454C108.513 40.4563 108.547 40.4271 108.559 40.3686L109.675 34.0552C109.684 33.9956 109.72 33.9647 109.781 33.9625L110.465 33.9415C110.514 33.9403 110.537 33.9642 110.534 34.0129ZM126.555 38.1C126.569 38.1 126.582 38.1054 126.592 38.1151C126.602 38.1248 126.608 38.1381 126.608 38.152L126.707 40.3751C126.707 40.3885 126.714 40.4011 126.723 40.4104C126.733 40.4197 126.746 40.4251 126.76 40.4255L130.765 40.4531C130.773 40.4533 130.78 40.452 130.788 40.4491C130.795 40.4462 130.802 40.4419 130.807 40.4363C130.812 40.4308 130.816 40.4242 130.818 40.417C130.82 40.4098 130.822 40.4022 130.821 40.3946L129.831 26.2468C129.83 26.2331 129.824 26.2203 129.814 26.2109C129.804 26.2015 129.791 26.1964 129.777 26.1964H123.336C123.325 26.1965 123.315 26.1996 123.306 26.2054C123.298 26.2111 123.291 26.2193 123.287 26.2289L117.291 40.3816C117.287 40.3898 117.286 40.3988 117.286 40.4077C117.287 40.4167 117.291 40.4253 117.295 40.4327C117.301 40.4401 117.307 40.4462 117.316 40.4503C117.323 40.4545 117.332 40.4566 117.342 40.4563H121.272C121.283 40.4561 121.293 40.4527 121.302 40.4467C121.311 40.4406 121.318 40.4321 121.321 40.4222L122.237 38.1341C122.242 38.1243 122.248 38.1157 122.257 38.1097C122.265 38.1036 122.276 38.1002 122.287 38.1H126.555Z" fill="white"/>
<path d="M65.8784 37.918L65.2958 41.3226C65.286 41.3778 65.2527 41.4055 65.196 41.4055H60.0984C60.0242 41.4055 59.9936 41.3692 60.0067 41.2966L62.7495 25.8601C62.7614 25.7972 62.7991 25.7658 62.8624 25.7658C65.3552 25.7614 67.8378 25.7636 70.3099 25.7723C73.1541 25.7836 74.6645 27.0382 74.7104 29.9227C74.7447 32.1556 73.9396 35.1164 72.1068 36.5839C70.251 38.0676 68.2283 37.7539 65.9684 37.8417C65.9171 37.8439 65.8871 37.8693 65.8784 37.918ZM65.4006 37.099C66.8815 37.099 68.7995 37.242 70.0301 36.8959C72.8792 36.0979 74.0721 32.583 74.023 29.9308C73.9773 27.4558 72.6992 26.4548 70.2723 26.4516C67.9998 26.4494 65.7246 26.4516 63.4466 26.458C63.3888 26.458 63.355 26.4862 63.3451 26.5426L60.8332 40.6336C60.8233 40.6877 60.8463 40.7148 60.9019 40.7148H64.6215C64.6728 40.7148 64.7029 40.6894 64.7116 40.6384L65.299 37.1835C65.3089 37.1272 65.3427 37.099 65.4006 37.099Z" fill="white"/>
<path d="M136.516 30.0164H133.364C133.354 30.0165 133.345 30.0145 133.336 30.0106C133.327 30.0066 133.32 30.0008 133.314 29.9935C133.307 29.9861 133.302 29.9776 133.3 29.9684C133.298 29.9591 133.297 29.9494 133.298 29.9399L134.089 25.5604C134.092 25.5455 134.1 25.532 134.112 25.5221C134.123 25.5124 134.137 25.5069 134.153 25.5068H145.934C145.944 25.5066 145.953 25.5086 145.962 25.5125C145.971 25.5165 145.978 25.5224 145.985 25.5296C145.991 25.5369 145.995 25.5455 145.998 25.5548C146 25.564 146.001 25.5737 146 25.5831L145.204 29.9627C145.202 29.9777 145.193 29.9912 145.182 30.001C145.17 30.0107 145.155 30.0162 145.14 30.0164H141.941C141.925 30.0161 141.91 30.0214 141.898 30.0312C141.886 30.041 141.878 30.0548 141.875 30.07L139.918 41.0945C139.915 41.1096 139.908 41.1233 139.896 41.1331C139.884 41.143 139.868 41.1483 139.853 41.1481H134.668C134.659 41.1482 134.649 41.1462 134.64 41.1422C134.631 41.1383 134.624 41.1325 134.618 41.1252C134.611 41.1179 134.606 41.1093 134.604 41.1001C134.602 41.0908 134.601 41.0811 134.603 41.0717L136.582 30.0927C136.583 30.0833 136.583 30.0736 136.58 30.0644C136.578 30.0551 136.573 30.0465 136.567 30.0392C136.56 30.0319 136.553 30.026 136.544 30.0221C136.535 30.0182 136.526 30.0162 136.516 30.0164ZM137.349 29.3257C137.357 29.3258 137.365 29.3276 137.372 29.3311C137.38 29.3346 137.386 29.3396 137.391 29.3458C137.396 29.3519 137.4 29.3592 137.402 29.3669C137.404 29.3747 137.405 29.3828 137.403 29.3907L135.488 40.3388C135.487 40.3466 135.487 40.3547 135.489 40.3625C135.491 40.3703 135.495 40.3775 135.5 40.3837C135.505 40.3898 135.512 40.3949 135.519 40.3983C135.526 40.4018 135.535 40.4036 135.542 40.4038L139.259 40.459C139.272 40.4591 139.285 40.4545 139.296 40.4458C139.306 40.4371 139.312 40.4251 139.315 40.4119L141.273 29.3712C141.275 29.3583 141.282 29.3466 141.293 29.3383C141.303 29.33 141.316 29.3255 141.329 29.3257H144.559C144.572 29.3255 144.584 29.3209 144.594 29.3126C144.604 29.3042 144.611 29.2928 144.613 29.2802L145.17 26.2625C145.171 26.2544 145.171 26.2462 145.168 26.2383C145.167 26.2304 145.162 26.2231 145.157 26.2169C145.152 26.2106 145.146 26.2057 145.138 26.2023C145.13 26.199 145.122 26.1973 145.114 26.1974H134.726C134.713 26.1976 134.7 26.2022 134.69 26.2106C134.68 26.2188 134.674 26.2303 134.671 26.243L134.131 29.2607C134.131 29.2687 134.131 29.2769 134.133 29.2848C134.135 29.2927 134.139 29.3 134.144 29.3062C134.149 29.3124 134.156 29.3174 134.164 29.3207C134.171 29.3241 134.179 29.3258 134.187 29.3257H137.349Z" fill="white"/>
<path d="M94.7639 30.5755C95.1096 28.7586 98.047 29.2477 99.3231 29.2348C99.3307 29.2347 99.3375 29.2362 99.3443 29.239C99.3504 29.2419 99.3564 29.2462 99.361 29.2514C99.3655 29.2567 99.3693 29.2629 99.3715 29.2696C99.3731 29.2762 99.3738 29.2832 99.3723 29.29C98.988 31.4968 98.5924 33.7021 98.1839 35.9056C97.9925 36.9392 97.4955 37.2577 96.4447 37.3633C95.5082 37.4576 94.5717 37.4815 93.6352 37.4349C93.5739 37.4316 93.5489 37.4002 93.5595 37.3406C94.1511 33.9442 94.552 31.6891 94.7639 30.5755ZM95.6361 30.3317C95.4333 30.6291 95.3925 31.0337 95.3252 31.4091C95.0135 33.1339 94.7041 34.8646 94.3977 36.6012C94.3879 36.6586 94.4121 36.6901 94.4711 36.6955C94.9931 36.7442 97.2844 36.8758 97.4198 36.1527C97.8049 34.1213 98.1718 32.0841 98.5198 30.0408C98.5296 29.9856 98.5069 29.9563 98.4509 29.953C97.8488 29.9124 96.0014 29.7954 95.6361 30.3317Z" fill="white"/>
<path d="M67.1257 29.3397C67.9128 29.291 70.3511 29.0732 70.1612 30.5455C70.0369 31.5173 69.913 32.2214 69.7898 32.6581C69.4347 33.9207 67.3727 33.7631 66.3597 33.7013C66.2954 33.6981 66.2686 33.6645 66.2796 33.6006L67.0111 29.4421C67.0231 29.3781 67.0613 29.344 67.1257 29.3397ZM69.3038 30.1506C68.7746 30.0239 68.2379 29.9832 67.6935 30.0287C67.6466 30.032 67.6193 30.0563 67.6116 30.1019L67.1223 32.8596C67.1114 32.9192 67.136 32.9522 67.196 32.9587C67.9406 33.0383 68.9732 33.1439 69.1516 32.3038C69.2792 31.7047 69.3878 31.0698 69.4772 30.3992C69.4844 30.3438 69.4707 30.2877 69.4386 30.2418C69.4066 30.1959 69.3586 30.1634 69.3038 30.1506Z" fill="white"/>
<path d="M83.2481 29.443C84.3412 29.6168 83.9176 31.1428 83.7603 31.7928C83.3911 33.3236 81.4742 33.0133 80.2896 32.9694C80.2381 32.9683 80.2169 32.9428 80.226 32.893L80.8282 29.4446C80.8388 29.3785 80.8781 29.3433 80.9462 29.3389C81.7238 29.2891 82.4909 29.3238 83.2481 29.443ZM83.1324 30.1515C82.6082 30.0226 82.0764 29.9803 81.537 30.0247C81.4742 30.0291 81.4379 30.0621 81.4273 30.1239L81.046 32.2478C81.0362 32.3031 81.0596 32.3307 81.1164 32.3307C81.6542 32.3307 82.8427 32.4217 83.031 31.7587C83.1649 31.2907 83.2519 30.8281 83.2913 30.3709C83.295 30.3215 83.2814 30.2723 83.2527 30.2321C83.2232 30.1919 83.1808 30.1633 83.1324 30.1515Z" fill="white"/>
<path d="M125.479 30.0961H126.197C126.211 30.0961 126.223 30.1012 126.232 30.1103C126.241 30.1195 126.246 30.1319 126.246 30.1448V34.9226C126.246 34.9355 126.241 34.9478 126.232 34.957C126.223 34.9661 126.211 34.9713 126.197 34.9713H123.546C123.539 34.9711 123.531 34.9689 123.524 34.9651C123.517 34.9613 123.511 34.9559 123.507 34.9493C123.503 34.9428 123.5 34.9354 123.499 34.9276C123.498 34.9198 123.5 34.9119 123.503 34.9046L125.433 30.127C125.437 30.1178 125.443 30.11 125.451 30.1045C125.46 30.099 125.469 30.0961 125.479 30.0961ZM125.525 31.7715L124.547 34.1783C124.518 34.2465 124.54 34.2806 124.615 34.2806H125.446C125.513 34.2806 125.546 34.2476 125.546 34.1815L125.561 31.778C125.561 31.7739 125.559 31.7699 125.557 31.7668C125.555 31.7636 125.551 31.7615 125.547 31.7608C125.543 31.76 125.538 31.7607 125.534 31.7627C125.53 31.7646 125.527 31.7677 125.525 31.7715Z" fill="white"/>
</g>
<defs>
<clipPath id="clip0_4093_207951">
<rect width="146" height="42" fill="white"/>
</clipPath>
</defs>
</svg>
