<svg width="32" height="32" viewBox="0 0 32 32" fill="none" xmlns="http://www.w3.org/2000/svg">
<path d="M32 16C32 24.8366 24.8366 32 16 32C7.16344 32 0 24.8366 0 16C0 7.16344 7.16344 0 16 0C24.8366 0 32 7.16344 32 16Z" fill="#29A9EA"/>
<path d="M23.5013 11.5263L22.5992 22.6013C22.5867 22.754 22.5331 22.9021 22.443 23.0322C22.3529 23.1624 22.2293 23.2706 22.0831 23.3471C21.937 23.4236 21.7729 23.4659 21.6057 23.4704C21.4384 23.4749 21.2733 23.4414 21.125 23.3728L14.561 20.3495C14.4246 20.2868 14.3061 20.1962 14.2146 20.0846C14.1231 19.973 14.061 19.8434 14.033 19.7056C14.0051 19.5678 14.0119 19.4255 14.0532 19.2896C14.0944 19.1536 14.1688 19.0275 14.2709 18.9209L19.0567 13.9229C19.1105 13.8678 19.0347 13.791 18.9695 13.8345L11.8141 18.607C11.3889 18.8919 10.8657 19.024 10.3459 18.9778L7.58171 18.7383C6.58378 18.6516 6.33973 17.4316 7.23161 17.0015L21.3002 10.2209C21.5398 10.1047 21.8079 10.0487 22.0769 10.0585C22.3459 10.0683 22.6061 10.1435 22.8305 10.2765C23.055 10.4095 23.2356 10.5954 23.3538 10.8151C23.472 11.0347 23.5235 11.2802 23.503 11.5261" fill="white"/>
</svg>
